<svg width="20" height="20" viewBox="0 0 20 20" fill="none" xmlns="http://www.w3.org/2000/svg">
<path d="M6.24997 20H13.75C17.2012 20 20 17.2012 20 13.75V6.25C20 2.79875 17.2012 -9.53674e-07 13.75 -9.53674e-07H6.24997C2.79872 -9.53674e-07 -3.05176e-05 2.79875 -3.05176e-05 6.25V13.75C-3.05176e-05 17.2012 2.79872 20 6.24997 20ZM1.87497 6.25C1.87497 3.8375 3.83747 1.875 6.24997 1.875H13.75C16.1625 1.875 18.125 3.8375 18.125 6.25V13.75C18.125 16.1625 16.1625 18.125 13.75 18.125H6.24997C3.83747 18.125 1.87497 16.1625 1.87497 13.75V6.25Z" fill="white"/>
<path d="M9.99997 15C12.7612 15 15 12.7612 15 10C15 7.23875 12.7612 5 9.99997 5C7.23872 5 4.99997 7.23875 4.99997 10C4.99997 12.7612 7.23872 15 9.99997 15ZM9.99997 6.875C11.7225 6.875 13.125 8.2775 13.125 10C13.125 11.7237 11.7225 13.125 9.99997 13.125C8.27747 13.125 6.87497 11.7237 6.87497 10C6.87497 8.2775 8.27747 6.875 9.99997 6.875Z" fill="white"/>
<path d="M4.62498 14.7088C4.25702 14.7088 3.95873 15.0071 3.95873 15.375C3.95873 15.743 4.25702 16.0413 4.62498 16.0413C4.99294 16.0413 5.29123 15.743 5.29123 15.375C5.29123 15.0071 4.99294 14.7088 4.62498 14.7088Z" fill="white"/>
</svg>
