<svg width="20" height="21" viewBox="0 0 20 21" fill="none" xmlns="http://www.w3.org/2000/svg">
<path d="M13.75 0.0632324H6.25C2.79875 0.0632324 0 2.86198 0 6.31323V13.8132C0 17.2645 2.79875 20.0632 6.25 20.0632H13.75C17.2012 20.0632 20 17.2645 20 13.8132V6.31323C20 2.86198 17.2012 0.0632324 13.75 0.0632324ZM18.125 13.8132C18.125 16.2257 16.1625 18.1882 13.75 18.1882H6.25C3.8375 18.1882 1.875 16.2257 1.875 13.8132V6.31323C1.875 3.90073 3.8375 1.93823 6.25 1.93823H13.75C16.1625 1.93823 18.125 3.90073 18.125 6.31323V13.8132Z" fill="white"/>
<path d="M10 5.06323C7.23875 5.06323 5 7.30198 5 10.0632C5 12.8245 7.23875 15.0632 10 15.0632C12.7613 15.0632 15 12.8245 15 10.0632C15 7.30198 12.7613 5.06323 10 5.06323ZM10 13.1882C8.2775 13.1882 6.875 11.7857 6.875 10.0632C6.875 8.33948 8.2775 6.93823 10 6.93823C11.7225 6.93823 13.125 8.33948 13.125 10.0632C13.125 11.7857 11.7225 13.1882 10 13.1882Z" fill="white"/>
<path d="M15.375 5.35447C15.7429 5.35447 16.0412 5.05618 16.0412 4.68822C16.0412 4.32026 15.7429 4.02197 15.375 4.02197C15.007 4.02197 14.7087 4.32026 14.7087 4.68822C14.7087 5.05618 15.007 5.35447 15.375 5.35447Z" fill="white"/>
</svg>
