<svg width="20" height="21" viewBox="0 0 20 21" fill="none" xmlns="http://www.w3.org/2000/svg">
<path d="M-0.00012207 10.9911C-0.00012207 16.5161 4.59111 20.9911 10.2536 20.9911C14.7849 20.9911 18.6274 18.1261 19.9822 14.1536C20.0787 13.6536 19.7613 13.4702 19.4892 13.4702C19.2457 13.4702 18.6005 13.4786 17.7457 13.4827C18.364 16.2644 16.3701 16.8511 16.3701 16.8511C15.1866 17.3061 14.8701 17.9636 14.8701 17.9636C14.2344 18.8694 14.2475 17.8936 14.2475 17.8936C14.3188 16.8894 15.304 16.3619 15.304 16.3619C16.8718 15.4702 16.4188 14.0211 16.157 13.4494C15.4936 13.3594 15.0423 13.1019 14.7857 12.8161C14.5292 15.0369 13.6475 17.3711 9.71886 17.3711C8.59975 17.3711 7.68498 16.9836 6.9676 16.3419C6.70847 16.4544 5.66588 16.7919 4.25373 16.2544C4.25373 16.2544 3.97895 15.4169 5.30502 13.5044C5.07719 12.7044 4.96415 11.8544 4.95893 11.0044C4.96415 10.1544 5.07719 9.30439 5.30502 8.50439C3.97895 6.60439 4.25373 5.76689 4.25373 5.76689C5.66588 5.22939 6.70847 5.56689 6.9676 5.66689C7.68498 5.02939 8.59975 4.64189 9.71886 4.64189C13.6579 4.64189 14.5249 6.97939 14.777 9.20439C15.0849 8.85439 15.7136 8.52939 16.6744 8.52939C18.0466 8.52939 19.1492 8.54189 19.4822 8.54189C19.7509 8.54189 20.0718 8.36689 19.9691 7.85439C18.6231 3.85356 14.7779 0.99106 10.2536 0.99106C4.59111 0.99106 -0.00012207 5.46856 -0.00012207 10.9911Z" fill="white"/>
</svg>
