<svg width="20" height="21" viewBox="0 0 20 21" fill="none" xmlns="http://www.w3.org/2000/svg">
<path d="M9.99991 0.0542908C4.47491 0.0542908 -9.15527e-05 4.64553 -9.15527e-05 10.3081C-9.15527e-05 14.8393 2.86491 18.6818 6.83741 20.0366C7.33741 20.1331 7.52074 19.8157 7.52074 19.5436C7.52074 19.3001 7.51241 18.6549 7.50824 17.8001C4.72657 18.4184 4.13991 16.4245 4.13991 16.4245C3.68491 15.241 3.02741 14.9245 3.02741 14.9245C2.12157 14.2889 3.09741 14.3019 3.09741 14.3019C4.10157 14.3732 4.62907 15.3584 4.62907 15.3584C5.52074 16.9262 6.96991 16.4732 7.54157 16.2114C7.63157 15.548 7.88907 15.0967 8.17491 14.8402C5.95407 14.5836 3.61991 13.7019 3.61991 9.77328C3.61991 8.65416 4.00741 7.73939 4.64907 7.02201C4.53657 6.76289 4.19907 5.72029 4.73657 4.30814C4.73657 4.30814 5.57407 4.03336 7.48657 5.35943C8.28657 5.13161 9.13657 5.01856 9.98657 5.01335C10.8366 5.01856 11.6866 5.13161 12.4866 5.35943C14.3866 4.03336 15.2241 4.30814 15.2241 4.30814C15.7616 5.72029 15.4241 6.76289 15.3241 7.02201C15.9616 7.73939 16.3491 8.65416 16.3491 9.77328C16.3491 13.7123 14.0116 14.5793 11.7866 14.8315C12.1366 15.1393 12.4616 15.768 12.4616 16.7288C12.4616 18.101 12.4491 19.2036 12.4491 19.5366C12.4491 19.8053 12.6241 20.1262 13.1366 20.0236C17.1374 18.6775 19.9999 14.8323 19.9999 10.3081C19.9999 4.64553 15.5224 0.0542908 9.99991 0.0542908Z" fill="white"/>
</svg>
