<svg width="20" height="21" viewBox="0 0 20 21" fill="none" xmlns="http://www.w3.org/2000/svg">
<path d="M10 20.0632C15.5242 20.0632 20 15.5874 20 10.0632C20 4.53907 15.5242 0.0632324 10 0.0632324C4.47583 0.0632324 0 4.53907 0 10.0632C0 15.5874 4.47583 20.0632 10 20.0632ZM4.57583 9.84657L14.2175 6.12907C14.665 5.9674 15.0558 6.23823 14.9108 6.9149L14.9117 6.91403L13.27 14.6482C13.1483 15.1966 12.8225 15.3299 12.3667 15.0716L9.86667 13.229L8.6608 14.3908C8.52747 14.5241 8.415 14.6366 8.15667 14.6366L8.3342 12.0924L12.9675 7.90657C13.1691 7.72903 12.9225 7.6291 12.6567 7.80577L6.93087 11.4107L4.4625 10.6408C3.92667 10.4707 3.915 10.1049 4.57583 9.84657Z" fill="white"/>
</svg>
